<svg xmlns="http://www.w3.org/2000/svg" width="26.619" height="28.354" viewBox="0 0 26.619 28.354"><defs><style>.a{opacity:0.4;}.b,.c,.f{fill:none;}.b,.c{stroke-miterlimit:10;}.c{stroke:#000;}.d,.e{stroke:none;}</style></defs><g class="a" transform="translate(0.619 2.354)"><g class="b" transform="translate(12.377 -2.884) rotate(45)"><path class="d" d="M.381,9C.569,4.935,4.935.569,9,.381H9C12.948.2,17.578,4.273,17.9,8.216l.856,10.537L8.216,17.9C4.273,17.578.2,12.948.381,9Z"/><path class="e" d="M 9.254376411437988 1.37481689453125 C 9.183445930480957 1.37481689453125 9.112106323242188 1.376457214355469 9.042325973510742 1.379676818847656 C 7.377595901489258 1.456655502319336 5.471376419067383 2.414966583251953 3.943166732788086 3.943166732788086 C 2.414966583251953 5.471376419067383 1.456655502319336 7.377595901489258 1.379676818847656 9.042325973510742 C 1.305545806884766 10.64570617675781 2.098876953125 12.55451583862305 3.501826286315918 14.14838600158691 C 4.904786109924316 15.74225616455078 6.69749641418457 16.77138710021973 8.29732608795166 16.90130615234375 L 17.66179466247559 17.66179466247559 L 16.90130615234375 8.29732608795166 C 16.77463531494141 6.737525939941406 15.78275680541992 4.978015899658203 14.24802589416504 3.59062671661377 C 12.71319580078125 2.203155517578125 10.84641647338867 1.37481689453125 9.254376411437988 1.37481689453125 M 9.254380226135254 0.3748188018798828 C 13.14748382568359 0.3748188018798828 17.5847053527832 4.358263969421387 17.89802551269531 8.216386795043945 L 18.7537670135498 18.7537670135498 L 8.216386795043945 17.89802551269531 C 4.27281665802002 17.57776641845703 0.1980056762695312 12.94846630096436 0.3807468414306641 8.996136665344238 C 0.5685062408447266 4.935366630554199 4.935366630554199 0.5685062408447266 8.996136665344238 0.3807468414306641 C 9.08177375793457 0.3767871856689453 9.168157577514648 0.3748188018798828 9.254380226135254 0.3748188018798828 Z"/></g><g class="c" transform="translate(8 6)"><circle class="d" cx="4.308" cy="4.308" r="4.308"/><circle class="f" cx="4.308" cy="4.308" r="3.808"/></g></g></svg>